HIERARCHY
ROOT Hips
{
    OFFSET   0.000000   0.000000   0.000000
    CHANNELS 6 Xposition Yposition Zposition Zrotation Xrotation Yrotation
    JOINT Chest
    {
        OFFSET   0.000000   8.007230   0.000000
        CHANNELS 3 Zrotation Xrotation Yrotation
        JOINT Chest2
        {
            OFFSET   0.000000  22.077100   0.000000
            CHANNELS 3 Zrotation Xrotation Yrotation
            JOINT Neck
            {
                OFFSET   0.000000  23.254800   0.000000
                CHANNELS 3 Zrotation Xrotation Yrotation
                JOINT Head
                {
                    OFFSET   0.000010  14.370000   1.956600
                    CHANNELS 3 Zrotation Xrotation Yrotation
                    End Site
                    {
                        OFFSET   0.000000  19.566000   0.000000
                    }
                }
            }
            JOINT LeftCollar
            {
                OFFSET   3.911900  19.017000  -0.467062
                CHANNELS 3 Zrotation Xrotation Yrotation
                JOINT LeftShoulder
                {
                    OFFSET  10.383700   0.000000   0.000000
                    CHANNELS 3 Zrotation Xrotation Yrotation
                    JOINT LeftElbow
                    {
                        OFFSET  26.662100   0.001193   0.000835
                        CHANNELS 3 Zrotation Xrotation Yrotation
                        JOINT LeftWrist
                        {
                            OFFSET  28.869000  -0.000058  -0.000075
                            CHANNELS 3 Zrotation Xrotation Yrotation
                            JOINT LeftFinger0
                            {
                                OFFSET   2.044660  -2.323460   3.252850
                                CHANNELS 3 Zrotation Xrotation Yrotation
                                JOINT LeftFinger01
                                {
                                    OFFSET   3.088130   0.000000   0.000000
                                    CHANNELS 3 Zrotation Xrotation Yrotation
                                    JOINT LeftFinger02
                                    {
                                        OFFSET   2.639450   0.000000   0.000000
                                        CHANNELS 3 Zrotation Xrotation Yrotation
                                        End Site
                                        {
                                            OFFSET   2.582190   0.000000   0.000000
                                        }
                                    }
                                }
                            }
                            JOINT LeftFinger1
                            {
                                OFFSET   8.364480   0.000000   3.252850
                                CHANNELS 3 Zrotation Xrotation Yrotation
                                JOINT LeftFinger11
                                {
                                    OFFSET   4.646920   0.000000   0.000000
                                    CHANNELS 3 Zrotation Xrotation Yrotation
                                    JOINT LeftFinger12
                                    {
                                        OFFSET   2.323460   0.000000   0.000000
                                        CHANNELS 3 Zrotation Xrotation Yrotation
                                        End Site
                                        {
                                            OFFSET   2.273050   0.000000   0.000000
                                        }
                                    }
                                }
                            }
                            JOINT LeftFinger2
                            {
                                OFFSET   8.364490   0.000016   1.078090
                                CHANNELS 3 Zrotation Xrotation Yrotation
                                JOINT LeftFinger21
                                {
                                    OFFSET   5.111620   0.000000   0.000000
                                    CHANNELS 3 Zrotation Xrotation Yrotation
                                    JOINT LeftFinger22
                                    {
                                        OFFSET   2.788150   0.000012   0.000000
                                        CHANNELS 3 Zrotation Xrotation Yrotation
                                        End Site
                                        {
                                            OFFSET   2.727660   0.000000   0.000000
                                        }
                                    }
                                }
                            }
                            JOINT LeftFinger3
                            {
                                OFFSET   7.899780   0.000014  -1.078090
                                CHANNELS 3 Zrotation Xrotation Yrotation
                                JOINT LeftFinger31
                                {
                                    OFFSET   4.646930   0.000000   0.000000
                                    CHANNELS 3 Zrotation Xrotation Yrotation
                                    JOINT LeftFinger32
                                    {
                                        OFFSET   2.323470   0.000000   0.000000
                                        CHANNELS 3 Zrotation Xrotation Yrotation
                                        End Site
                                        {
                                            OFFSET   2.273050   0.000000   0.000000
                                        }
                                    }
                                }
                            }
                            JOINT LeftFinger4
                            {
                                OFFSET   7.435090   0.000000  -3.252850
                                CHANNELS 3 Zrotation Xrotation Yrotation
                                JOINT LeftFinger41
                                {
                                    OFFSET   3.717550   0.000000   0.000000
                                    CHANNELS 3 Zrotation Xrotation Yrotation
                                    JOINT LeftFinger42
                                    {
                                        OFFSET   1.858770   0.000000   0.000000
                                        CHANNELS 3 Zrotation Xrotation Yrotation
                                        End Site
                                        {
                                            OFFSET   1.818440   0.000000   0.000000
                                        }
                                    }
                                }
                            }
                        }
                    }
                }
            }
            JOINT RightCollar
            {
                OFFSET  -3.911900  19.017000  -0.467063
                CHANNELS 3 Zrotation Xrotation Yrotation
                JOINT RightShoulder
                {
                    OFFSET -10.383700   0.000023   0.000000
                    CHANNELS 3 Zrotation Xrotation Yrotation
                    JOINT RightElbow
                    {
                        OFFSET -26.662100   0.001246   0.001011
                        CHANNELS 3 Zrotation Xrotation Yrotation
                        JOINT RightWrist
                        {
                            OFFSET -28.869000  -0.000026  -0.000078
                            CHANNELS 3 Zrotation Xrotation Yrotation
                            JOINT RightFinger0
                            {
                                OFFSET  -2.044660  -2.323490   3.252850
                                CHANNELS 3 Zrotation Xrotation Yrotation
                                JOINT RightFinger01
                                {
                                    OFFSET  -3.088130   0.000000   0.000000
                                    CHANNELS 3 Zrotation Xrotation Yrotation
                                    JOINT RightFinger02
                                    {
                                        OFFSET  -2.639460   0.000000   0.000000
                                        CHANNELS 3 Zrotation Xrotation Yrotation
                                        End Site
                                        {
                                            OFFSET  -2.582190   0.000000   0.000000
                                        }
                                    }
                                }
                            }
                            JOINT RightFinger1
                            {
                                OFFSET  -8.364480   0.000000   3.252850
                                CHANNELS 3 Zrotation Xrotation Yrotation
                                JOINT RightFinger11
                                {
                                    OFFSET  -4.646920   0.000000   0.000000
                                    CHANNELS 3 Zrotation Xrotation Yrotation
                                    JOINT RightFinger12
                                    {
                                        OFFSET  -2.323470   0.000000   0.000000
                                        CHANNELS 3 Zrotation Xrotation Yrotation
                                        End Site
                                        {
                                            OFFSET  -2.273050   0.000000   0.000000
                                        }
                                    }
                                }
                            }
                            JOINT RightFinger2
                            {
                                OFFSET  -8.364480   0.000000   1.078090
                                CHANNELS 3 Zrotation Xrotation Yrotation
                                JOINT RightFinger21
                                {
                                    OFFSET  -5.111620   0.000000   0.000000
                                    CHANNELS 3 Zrotation Xrotation Yrotation
                                    JOINT RightFinger22
                                    {
                                        OFFSET  -2.788160   0.000000   0.000000
                                        CHANNELS 3 Zrotation Xrotation Yrotation
                                        End Site
                                        {
                                            OFFSET  -2.727660   0.000000   0.000000
                                        }
                                    }
                                }
                            }
                            JOINT RightFinger3
                            {
                                OFFSET  -7.899780   0.000000  -1.078090
                                CHANNELS 3 Zrotation Xrotation Yrotation
                                JOINT RightFinger31
                                {
                                    OFFSET  -4.646930   0.000000   0.000000
                                    CHANNELS 3 Zrotation Xrotation Yrotation
                                    JOINT RightFinger32
                                    {
                                        OFFSET  -2.323470   0.000000   0.000000
                                        CHANNELS 3 Zrotation Xrotation Yrotation
                                        End Site
                                        {
                                            OFFSET  -2.273050   0.000000   0.000000
                                        }
                                    }
                                }
                            }
                            JOINT RightFinger4
                            {
                                OFFSET  -7.435090   0.000000  -3.252850
                                CHANNELS 3 Zrotation Xrotation Yrotation
                                JOINT RightFinger41
                                {
                                    OFFSET  -3.717550   0.000000   0.000000
                                    CHANNELS 3 Zrotation Xrotation Yrotation
                                    JOINT RightFinger42
                                    {
                                        OFFSET  -1.858760   0.000000   0.000000
                                        CHANNELS 3 Zrotation Xrotation Yrotation
                                        End Site
                                        {
                                            OFFSET  -1.818440   0.000000   0.000000
                                        }
                                    }
                                }
                            }
                        }
                    }
                }
            }
        }
    }
    JOINT LeftHip
    {
        OFFSET   9.783010   0.000000   0.000000
        CHANNELS 3 Zrotation Xrotation Yrotation
        JOINT LeftKnee
        {
            OFFSET   0.000073 -41.789100   0.001749
            CHANNELS 3 Zrotation Xrotation Yrotation
            JOINT LeftAnkle
            {
                OFFSET   0.000111 -41.133200  -0.000179
                CHANNELS 3 Zrotation Xrotation Yrotation
                JOINT LeftToe
                {
                    OFFSET   0.000000  -6.358960  14.674500
                    CHANNELS 3 Zrotation Xrotation Yrotation
                    End Site
                    {
                        OFFSET   0.000000   0.000000   3.913200
                    }
                }
            }
        }
    }
    JOINT RightHip
    {
        OFFSET  -9.783010   0.000000   0.000000
        CHANNELS 3 Zrotation Xrotation Yrotation
        JOINT RightKnee
        {
            OFFSET   0.000424 -41.789200   0.005205
            CHANNELS 3 Zrotation Xrotation Yrotation
            JOINT RightAnkle
            {
                OFFSET   0.000000 -41.133200  -0.000155
                CHANNELS 3 Zrotation Xrotation Yrotation
                JOINT RightToe
                {
                    OFFSET   0.000000  -6.358960  14.674500
                    CHANNELS 3 Zrotation Xrotation Yrotation
                    End Site
                    {
                        OFFSET   0.000000   0.000000   3.913200
                    }
                }
            }
        }
    }
}
MOTION
Frames: 4
Frame Time:   0.016667
 -1.338640  89.450500   1.357950  -5.961820 -13.574400  -9.108040   1.793880   7.362880  -2.782070   3.998060  14.624800  -5.870080   6.103120   2.550740  -0.271621  10.079900   4.996720   5.943760  -1.724030  -0.283109   1.980410 -74.873800  21.991600  -3.311170  -2.576110  -6.085110 -16.419200  12.680500  -7.201570   1.259480  43.333700  36.032500 -61.628500 -29.214700   0.003426   0.003848  -9.607360   0.004995   0.009180 -28.333100   5.287050  -9.695850 -23.547700  -0.002560   0.004489 -16.483400  -0.001156   0.003002 -28.690400   1.492420  -2.724590 -39.619400  -0.000563   0.001354 -26.386600  -0.000763   0.001749 -28.641600   1.490070  -2.725880 -38.610600   0.006187  -0.004299 -25.714700   0.004434  -0.003578 -34.758300   0.294699  -0.424696 -52.139100  -0.002270   0.003180 -34.724600  -0.003869  -0.001006   2.515860  -2.344400   6.487200  43.573900 -17.899600  37.290500 -47.318500 -22.649800  46.417600  15.019800  24.533500 -17.562000 -38.311600  36.377800  67.896200  34.973400  -0.008517   0.001219  12.486700  -0.002053   0.000886  10.881100  -0.848496  -4.577050   8.934090  -0.000121   0.005105   6.253870   0.000407   0.002909  89.038700  -4.649480  -0.098330  90.204100  -0.004956  -0.026892  67.653200  -0.019886  -0.004183  84.706900  -4.955810  -0.468544  84.726500  -0.005524  -0.028075  63.544900  -0.020413  -0.006964  89.174100 -10.003400  -0.141546 110.000000   0.001018   0.002654  80.000000   0.006792   0.000565   3.616940  18.909300   3.940010   1.171720   0.029674   4.522870  -1.065430  -5.042170   2.972210  -0.000000   0.000000   0.000000   4.820620  15.383700  -0.354694  -0.880037   2.667320  -1.747170  -0.838264  -4.519540   4.113120   0.000000   0.000000  -0.000000
 -1.345140  89.452400   1.364930  -5.941620 -13.547200  -9.097970   1.800390   7.330880  -2.827800   4.015950  14.558700  -5.961840   6.043150   2.604510  -0.271991   9.983290   5.105680   6.173540  -1.731430  -0.243921   2.010730 -74.858400  21.991800  -3.364840  -2.528010  -6.097970 -16.446900  12.696900  -7.271140   1.274540  43.339200  36.026600 -61.598300 -29.207600   0.003397   0.003808  -9.603810   0.005088   0.009171 -28.347400   5.296990  -9.710160 -23.561700  -0.002582   0.004406 -16.493200  -0.001138   0.002971 -28.692900   1.504930  -2.747130 -39.693000  -0.000663   0.001432 -26.435600  -0.000851   0.001674 -28.643700   1.502540  -2.748450 -38.655200   0.006123  -0.004246 -25.744400   0.004401  -0.003521 -34.793700   0.286550  -0.412422 -52.192100  -0.002381   0.003241 -34.759900  -0.003918  -0.001031   2.493580  -2.209480   6.539710  44.190500 -18.441700  37.506900 -47.834800 -22.440600  46.289300  21.512700  25.479100 -20.626400 -38.586400  35.951500  67.162000  34.737000  -0.008449   0.001078  12.368500  -0.001922   0.000890  10.591900  -0.794122  -4.313980   8.696370   0.008042   0.014859   6.087470   0.006832   0.008628  89.070100  -4.408050  -0.083846  91.079300  -0.001390  -0.010589  68.309500  -0.007777  -0.004294  85.582200  -4.972810  -0.388785  85.598800  -0.005386  -0.012757  64.199100  -0.009740  -0.004203  88.984600  -9.998460  -0.176311 110.000000   0.001033   0.002618  80.000000   0.006605   0.000752   3.604620  18.896000   3.946130   1.173660   0.000331   4.523410  -1.072320  -5.027600   2.963560  -0.000000   0.000000   0.000000   4.800290  15.368400  -0.353201  -0.868919   2.653190  -1.761980  -0.837496  -4.521850   4.127030   0.000000   0.000000  -0.000000
 -1.352080  89.452200   1.372210  -5.924900 -13.523200  -9.090620   1.803130   7.303970  -2.865150   4.024780  14.503400  -6.036310   6.003750   2.656170  -0.272312   9.920750   5.209270   6.370070  -1.737660  -0.214072   1.989720 -74.840100  21.962500  -3.397590  -2.487810  -6.114850 -16.490700  12.704500  -7.366930   1.305110  43.300500  36.016900 -61.549500 -29.254500   0.003384   0.003779  -9.627400   0.005182   0.009148 -28.385100   5.271080  -9.648100 -23.588200  -0.002606   0.004320 -16.511700  -0.001120   0.002934 -28.698800   1.473970  -2.690210 -39.779900  -0.000770   0.001511 -26.493400  -0.000937   0.001602 -28.648300   1.471620  -2.691500 -38.715000   0.006063  -0.004195 -25.784200   0.004369  -0.003470 -34.838100   0.276310  -0.397051 -52.258600  -0.002493   0.003300 -34.804200  -0.003974  -0.001048   2.495170  -2.109490   6.563650  44.804400 -19.017000  37.626600 -48.021000 -21.891800  46.266000  25.498900  25.998900 -22.490500 -38.974100  35.649300  65.851900  34.225400  -0.008350   0.000942  12.112700  -0.001800   0.000896  12.203000  -0.790891  -3.700010  10.008600   0.005498   0.009928   7.006020   0.004563   0.008615  89.033800  -3.799710  -0.068685  92.283000  -0.001187  -0.002740  69.212200  -0.003328  -0.004474  86.792400  -4.988110  -0.281628  86.804600  -0.005099  -0.006384  65.103400  -0.005020  -0.003810  88.984400  -9.998340  -0.177174 110.000000   0.001045   0.002579  80.000000   0.006399   0.000940   3.593350  18.867200   3.957070   1.178150   0.013141   4.523730  -1.080000  -5.032110   2.952400  -0.000000   0.000000  -0.000000   4.785840  15.355100  -0.351669  -0.862312   2.642150  -1.770400  -0.837255  -4.523970   4.131600  -0.000000   0.000000   0.000000
 -1.359490  89.451800   1.380330  -5.911490 -13.503100  -9.086500   1.805400   7.282110  -2.897000   4.031770  14.458300  -6.099840   5.971440   2.701330  -0.272619   9.869550   5.299730   6.543060  -1.746680  -0.188216   1.952480 -74.818400  21.920700  -3.425500  -2.456660  -6.131700 -16.538500  12.708900  -7.429620   1.326560  43.268400  36.010200 -61.516600 -29.307100   0.003368   0.003751  -9.653530   0.005274   0.009125 -28.426700   5.245140  -9.586050 -23.618300  -0.002627   0.004230 -16.532800  -0.001101   0.002893 -28.704200   1.443010  -2.633300 -39.865200  -0.000878   0.001593 -26.550200  -0.001023   0.001530 -28.652500   1.440710  -2.634560 -38.777300   0.006004  -0.004143 -25.825700   0.004337  -0.003417 -34.883500   0.265834  -0.381350 -52.326600  -0.002607   0.003360 -34.849500  -0.004032  -0.001065   2.518240  -2.024390   6.574440  45.331900 -19.527700  37.664800 -48.070900 -21.342200  46.247500  28.189300  26.082900 -23.571600 -39.353900  35.281700  64.514900  33.650800  -0.008234   0.000794  11.825400  -0.001674   0.000902  14.516600  -0.790823  -3.116960  11.896200   0.001934   0.004952   8.327320   0.001533   0.008583  88.997000  -3.224530  -0.057935  92.983700  -0.001127  -0.000509  69.737700  -0.002550  -0.004619  87.648500  -4.994710  -0.205970  87.657500  -0.004811  -0.004789  65.743000  -0.003586  -0.003686  88.984400  -9.998310  -0.177479 110.000000   0.001058   0.002538  80.000000   0.006172   0.001126   3.584890  18.837400   3.966100   1.184660   0.036929   4.524300  -1.087350  -5.042600   2.945520   0.000000   0.000000  -0.000000   4.776010  15.345200  -0.350813  -0.857991   2.633890  -1.777190  -0.837548  -4.527570   4.136360   0.000000   0.000000  -0.000000
